<?xml version="1.0" encoding="utf-8"?>
<!-- Generator: Adobe Illustrator 16.0.4, SVG Export Plug-In . SVG Version: 6.00 Build 0)  -->
<!DOCTYPE svg PUBLIC "-//W3C//DTD SVG 1.1//EN" "http://www.w3.org/Graphics/SVG/1.1/DTD/svg11.dtd">
<svg version="1.1" id="Layer_1" xmlns="http://www.w3.org/2000/svg" xmlns:xlink="http://www.w3.org/1999/xlink" x="0px" y="0px"
	 width="269px" height="80px" viewBox="0 0 269 80" enable-background="new 0 0 269 80" xml:space="preserve">
<g>
	<g>
		<path fill="#B1D46A" d="M10.714,11.449c0,0,2.482,4.008,8.734,5.771c6.252,1.764,19.312,0.561,31.014,6.57
			c11.699,6.014,12.102,16.832,11.381,20.438c-0.723,3.606-4.811,4.327-4.811,4.327s1.523,6.09-7.85,6.65
			C15.919,52.242,10.714,11.449,10.714,11.449z"/>
		<path fill="#7FA03E" d="M50.456,23.79c-10.521-5.404-22.146-4.976-28.926-6.119c6.35,2.122,18.771,2.192,29.291,9.064
			c9.496,6.207,10.281,15.479,9.611,20.06c0.643-0.627,1.184-1.459,1.408-2.568C62.56,40.619,62.161,29.8,50.456,23.79z"/>
		<path fill="#7FA03E" d="M51.618,52.062c-30.211-0.908-39.305-34.111-40.754-40.394c-0.102-0.139-0.15-0.22-0.15-0.22
			s5.205,43.26,38.463,43.756c3.848-0.23,5.861-1.393,6.895-2.686c-0.016-0.25-0.033-0.51-0.057-0.771
			C54.556,51.83,53.005,51.896,51.618,52.062z"/>
		<path fill="#FFFFFF" d="M33.331,31.271c0,0,15.023,9.21,22.609,18.42c7.588,9.207,7.33,21.057,7.33,21.057
			s3.232-14.096-3.795-22.619C52.444,39.604,33.331,31.271,33.331,31.271z"/>
		<path fill="#B1D46A" d="M96.331,37.059c0,0-1.383,2.23-4.863,3.211c-3.48,0.982-10.752,0.313-17.262,3.66
			c-6.51,3.344-6.736,9.365-6.336,11.373c0.402,2.008,2.678,2.41,2.678,2.41s-0.848,3.389,4.371,3.701
			C93.431,59.764,96.331,37.059,96.331,37.059z"/>
		<path fill="#7FA03E" d="M74.206,43.928c5.859-3.009,12.33-2.77,16.102-3.405c-3.533,1.179-10.447,1.219-16.301,5.044
			c-5.287,3.455-5.723,8.617-5.352,11.166c-0.355-0.35-0.658-0.812-0.783-1.43C67.472,53.295,67.696,47.273,74.206,43.928z"/>
		<path fill="#7FA03E" d="M73.56,59.664c16.818-0.506,21.879-18.987,22.688-22.483l0.084-0.122c0,0-2.9,24.078-21.41,24.355
			c-2.143-0.129-3.262-0.777-3.838-1.494c0.01-0.141,0.02-0.285,0.031-0.43C71.927,59.533,72.792,59.572,73.56,59.664z"/>
		<path fill="#FFFFFF" d="M81.933,49.361c0,0-6.406,3.809-10.768,8.814c-4.365,5.006-4.406,11.852-4.406,11.852
			s-1.578-8.141,2.463-12.775C73.265,52.615,81.933,49.361,81.933,49.361z"/>
	</g>
	<text transform="matrix(1 0 0 1 62.5215 77.999)" fill="#FFFFFF" font-family="'Rockwell'" font-size="36" letter-spacing="1">obscuri   tea</text>
	<circle fill="#FFFFFF" cx="179.832" cy="67.08" r="2.667"/>
</g>
</svg>
